<svg width="510" height="466" viewBox="0 0 510 466" fill="none" xmlns="http://www.w3.org/2000/svg">
<path fill-rule="evenodd" clip-rule="evenodd" d="M274.988 269.614C274.988 269.614 244.896 266.234 233.243 287.983C229.322 295.301 200.257 363.163 197.176 389.908C197.176 389.908 190.177 392.121 189.205 395.714H230.435C230.872 395.714 231.267 395.451 231.435 395.048C234.444 387.85 260.844 324.684 260.844 324.684C260.844 324.684 264.238 381.942 264.932 393.641C265.001 394.805 265.965 395.714 267.131 395.714C274.947 395.714 302.171 395.714 302.171 395.714C302.171 395.714 301.205 391.94 294.135 389.908C294.135 389.908 297.958 300.838 287.344 278.537L274.988 269.614Z" fill="url(#paint0_linear_214_574)"/>
<path fill-rule="evenodd" clip-rule="evenodd" d="M254.999 338.669L258.721 301.121C258.746 300.86 258.968 300.663 259.231 300.67C259.492 300.677 259.704 300.885 259.715 301.148L260.776 324.847L254.999 338.669Z" fill="#13524E"/>
<path fill-rule="evenodd" clip-rule="evenodd" d="M294.804 355.589C294.804 356.159 294.803 356.723 294.801 357.284H262.776L262.676 355.589H294.804ZM206.218 355.589H247.927L247.219 357.284H205.649L205.658 357.257C205.838 356.718 206.019 356.181 206.201 355.642L206.218 355.589Z" fill="#82B5B2"/>
<path d="M251.915 217.462C258.031 217.462 262.989 212.503 262.989 206.387C262.989 200.271 258.031 195.312 251.915 195.312C245.798 195.312 240.84 200.271 240.84 206.387C240.84 212.503 245.798 217.462 251.915 217.462Z" fill="#A8CFCC"/>
<path fill-rule="evenodd" clip-rule="evenodd" d="M251.097 195.342C251.657 197.599 252.465 203.292 248.257 208.321C247.811 207.599 247.004 207.116 246.083 207.116C244.68 207.116 243.541 208.237 243.541 209.619C243.541 211 244.68 212.122 246.083 212.122C246.326 212.122 246.561 212.088 246.784 212.025C246.815 212.897 246.59 214.117 245.52 215.427C242.69 213.42 240.841 210.118 240.841 206.387C240.841 200.55 245.367 195.761 251.097 195.342Z" fill="black"/>
<path fill-rule="evenodd" clip-rule="evenodd" d="M242.813 211.991C242.499 212.175 241.706 212.148 241.345 212.22C240.162 212.457 238.986 212.732 237.815 213.021C234.193 213.916 230.623 214.993 227.244 216.593C224.786 217.757 222.212 219.231 221.049 221.81C219.358 225.559 222.363 228.925 226.269 228.572C230.037 228.233 232.994 225.503 235.504 222.936C238.441 219.933 241.794 216.696 244.046 213.112" fill="black"/>
<path fill-rule="evenodd" clip-rule="evenodd" d="M229.887 236.883C228.012 238.88 211.523 256.908 199.133 270.816C194.976 275.52 194.599 282.465 198.223 287.592C198.223 287.593 198.223 287.593 198.223 287.593C201.406 292.096 207.167 293.976 212.393 292.217C218.055 290.308 225.789 285.902 234.789 276.03C239.36 271.015 242.995 266.436 245.994 263.633C245.994 263.633 259.15 267.866 265.918 260.611C265.918 260.611 282.438 281.72 298.426 290.134C304.749 293.422 312.54 291.215 316.198 285.099C317.902 282.275 318.617 278.876 316.7 275.185C308.308 259.017 295.13 246.785 274.988 227.418C271.078 223.658 264.241 218.287 251.001 221.352C246.012 222.507 239.931 226.181 229.887 236.883Z" fill="#A8CFCC"/>
<path fill-rule="evenodd" clip-rule="evenodd" d="M258.873 250.172C258.873 250.172 259.307 250.061 259.819 250.107C260.252 250.146 260.766 250.299 261.03 250.845C261.384 251.58 260.849 252.186 260.032 252.805C258.376 254.062 255.46 255.161 252.877 256.212C252.53 256.353 252.363 256.749 252.504 257.096C252.645 257.442 253.041 257.609 253.387 257.468C256.087 256.37 259.122 255.198 260.852 253.885C262.296 252.79 262.878 251.555 262.25 250.256C261.739 249.196 260.783 248.833 259.941 248.757C259.176 248.688 258.527 248.862 258.527 248.862C258.164 248.957 257.949 249.329 258.044 249.69C258.141 250.052 258.512 250.268 258.873 250.172Z" fill="#82B5B2"/>
<path fill-rule="evenodd" clip-rule="evenodd" d="M264.123 247.402C264.123 247.402 264.93 246.62 266.028 245.996C266.715 245.606 267.518 245.268 268.306 245.272C268.628 245.272 268.931 245.412 269.14 245.655C269.348 245.897 269.44 246.219 269.39 246.535C269.258 247.296 268.896 248.329 267.96 249.315C266.674 250.672 263.418 254.768 253.05 256.08C252.679 256.127 252.416 256.467 252.464 256.838C252.511 257.209 252.85 257.473 253.221 257.426C264.164 256.039 267.586 251.68 268.945 250.248C270.114 249.016 270.56 247.722 270.729 246.754C270.839 246.034 270.634 245.315 270.17 244.773C269.704 244.23 269.026 243.917 268.311 243.916C267.294 243.911 266.245 244.314 265.359 244.817C264.1 245.532 263.178 246.43 263.178 246.43C262.91 246.691 262.903 247.121 263.164 247.389C263.425 247.657 263.854 247.663 264.123 247.402Z" fill="#82B5B2"/>
<path fill-rule="evenodd" clip-rule="evenodd" d="M265.886 251.845C265.886 251.845 264.149 256.278 262.434 257.992C262.169 258.257 262.169 258.686 262.434 258.951C262.698 259.215 263.128 259.215 263.393 258.951C265.24 257.104 267.147 252.344 267.147 252.344C267.284 251.997 267.114 251.602 266.765 251.464C266.418 251.326 266.023 251.497 265.886 251.845Z" fill="#82B5B2"/>
<path fill-rule="evenodd" clip-rule="evenodd" d="M260.664 254.77V256.365C260.664 256.739 260.967 257.043 261.342 257.043C261.715 257.043 262.02 256.739 262.02 256.365V254.77C262.02 254.396 261.715 254.092 261.342 254.092C260.967 254.092 260.664 254.396 260.664 254.77Z" fill="#82B5B2"/>
<path fill-rule="evenodd" clip-rule="evenodd" d="M265.513 229.152C265.513 229.152 264.428 229.602 263.918 230.838C263.605 231.597 263.489 232.675 264.083 234.157C264.767 235.864 266.528 240.917 264.135 244.806C263.939 245.125 264.039 245.543 264.355 245.739C264.676 245.935 265.093 245.836 265.289 245.517C267.957 241.184 266.103 235.554 265.34 233.652C264.93 232.625 264.954 231.881 265.171 231.355C265.457 230.665 266.045 230.399 266.045 230.399C266.389 230.252 266.55 229.853 266.403 229.509C266.255 229.165 265.857 229.005 265.513 229.152Z" fill="#82B5B2"/>
<path fill-rule="evenodd" clip-rule="evenodd" d="M239.632 270.551C238.143 272.265 236.534 274.115 234.789 276.03C225.789 285.902 218.055 290.308 212.393 292.217C207.167 293.976 201.406 292.096 198.223 287.593C198.223 287.593 198.223 287.593 198.223 287.592C194.599 282.465 194.976 275.52 199.133 270.816C211.523 256.908 228.012 238.88 229.887 236.883C239.931 226.181 246.012 222.507 251.001 221.352C264.241 218.287 271.078 223.658 274.988 227.418C295.13 246.785 308.308 259.017 316.7 275.185C318.617 278.876 317.902 282.275 316.198 285.099C313.243 290.039 307.591 292.429 302.195 291.432L297.611 289.695C292.089 286.644 286.537 282.152 281.655 277.603C278.875 274.715 276.971 272.515 276.971 272.515L285.07 252.515L272.025 243.266C271.476 239.482 271.259 237.063 270.088 234.556C269.77 233.87 269.378 233.177 268.888 232.448C266.612 229.054 265.179 231.074 265.179 231.074C264.121 229.769 263.14 229.167 262.486 228.891C262.14 228.754 261.752 228.778 261.427 228.957C261.103 229.137 260.876 229.452 260.808 229.817C260.65 230.714 261.199 231.726 261.496 232.19C261.588 232.331 261.693 232.463 261.81 232.583C268.238 239.229 264.684 246.688 264.684 246.688C261.508 250.597 255.837 250.504 255.837 250.504C251.69 250.838 249.082 249.56 247.603 248.394C245.404 246.665 242.495 246.129 239.823 246.96C233.304 249.038 226.269 255.227 226.269 255.227L239.632 270.551Z" fill="url(#paint1_linear_214_574)"/>
<path fill-rule="evenodd" clip-rule="evenodd" d="M246.013 263.639L252.658 256.207C252.658 256.207 260.666 259.863 263.203 257.003L266.421 261.242C266.091 260.834 265.918 260.611 265.918 260.611C259.3 267.707 246.567 263.813 246.013 263.639Z" fill="#82B5B2"/>
<path fill-rule="evenodd" clip-rule="evenodd" d="M227.76 253.996C226.821 254.741 226.269 255.227 226.269 255.227L227.363 256.481L207.491 272.954C207.13 273.253 206.596 273.202 206.297 272.843C205.999 272.482 206.049 271.948 206.409 271.649L227.551 254.123C227.616 254.07 227.686 254.027 227.76 253.996ZM284.094 251.823C284.272 251.834 284.45 251.902 284.595 252.028L303.947 268.798C304.3 269.104 304.339 269.64 304.032 269.993C303.725 270.346 303.19 270.385 302.837 270.078L284.421 254.119L285.07 252.515L284.094 251.823ZM229.688 252.528C229.787 250.896 230.07 247.703 230.838 244.91C230.921 244.652 231.163 244.48 231.434 244.487C231.704 244.493 231.938 244.677 232.008 244.939C232.425 246.484 232.996 248.612 233.38 250.046C232.017 250.879 230.757 251.746 229.688 252.528ZM276.396 246.365L277.305 242.041C277.339 241.879 277.469 241.755 277.632 241.728C277.794 241.701 277.957 241.777 278.04 241.92C278.554 243.054 279.326 245.239 279.701 248.709L276.396 246.365Z" fill="#13524E"/>
<path d="M254.333 250.831C258.625 250.831 262.105 246.077 262.105 240.214C262.105 234.351 258.625 229.598 254.333 229.598C250.041 229.598 246.562 234.351 246.562 240.214C246.562 246.077 250.041 250.831 254.333 250.831Z" fill="#FFCD80"/>
<path d="M254.316 249.043C257.913 249.043 260.829 245.06 260.829 240.147C260.829 235.234 257.913 231.251 254.316 231.251C250.719 231.251 247.804 235.234 247.804 240.147C247.804 245.06 250.719 249.043 254.316 249.043Z" fill="#FFB000"/>
<path d="M252.215 234.285C252.27 234.285 252.512 234.285 252.935 234.286C253.451 234.286 253.885 234.286 254.252 234.286C254.542 234.286 254.547 234.286 254.266 234.286C254.129 234.286 253.981 234.286 253.821 234.286C253.541 234.286 253.409 234.286 253.425 234.286C253.441 234.286 253.594 234.286 253.878 234.286C254.218 234.286 254.602 234.286 255.04 234.286C255.468 234.286 255.885 234.286 256.291 234.286C256.769 234.286 257.055 234.286 257.155 234.286L256.338 234.286C256.239 234.286 256.019 234.286 255.673 234.286C255.491 234.286 255.294 234.286 255.08 234.286C254.861 234.286 254.652 234.286 254.461 234.286C254.346 234.286 254.291 234.286 254.286 234.286C254.281 234.286 254.363 234.286 254.517 234.286C254.605 234.286 254.731 234.286 254.896 234.286C255.215 234.286 255.353 234.286 255.315 234.286C255.277 234.286 255.124 234.286 254.845 234.286C254.084 234.286 253.245 234.286 252.338 234.285C251.762 234.285 251.443 234.285 251.381 234.285L252.215 234.285Z" fill="#FFCD80"/>
<path fill-rule="evenodd" clip-rule="evenodd" d="M255.886 232.532L252.325 232.532L253.206 232.532L256.634 232.532L255.886 232.532Z" fill="#FFCD80"/>
<path fill-rule="evenodd" clip-rule="evenodd" d="M213.13 370.095C212.107 369.91 211.33 369.013 211.33 367.937V363.551C211.33 362.341 212.313 361.358 213.523 361.358H238.155C239.365 361.358 240.348 362.341 240.348 363.551V367.937C240.348 369.013 239.571 369.91 238.548 370.095C239.571 370.281 240.348 371.178 240.348 372.254V376.64C240.348 377.716 239.571 378.611 238.548 378.797C239.571 378.982 240.348 379.878 240.348 380.954V385.34C240.348 386.417 239.571 387.313 238.548 387.498C239.571 387.684 240.348 388.579 240.348 389.655V394.041C240.348 395.251 239.365 396.234 238.155 396.234H213.523C212.313 396.234 211.33 395.251 211.33 394.041V389.655C211.33 388.579 212.107 387.684 213.13 387.498C212.107 387.313 211.33 386.417 211.33 385.34V380.954C211.33 379.878 212.107 378.982 213.13 378.797C212.107 378.611 211.33 377.716 211.33 376.64V372.254C211.33 371.178 212.107 370.281 213.13 370.095Z" fill="#FFCD80"/>
<path fill-rule="evenodd" clip-rule="evenodd" d="M234.533 361.358V368.376H240.222C240.249 368.376 240.276 368.378 240.303 368.38C240.132 369.213 239.489 369.874 238.666 370.071H238.622V370.081C238.597 370.086 238.573 370.091 238.548 370.095C238.573 370.1 238.597 370.105 238.622 370.11V377.075H240.222C240.249 377.075 240.276 377.077 240.303 377.079C240.133 377.911 239.493 378.572 238.672 378.77H236.86V385.776H240.222C240.249 385.776 240.277 385.776 240.304 385.779C240.135 386.608 239.497 387.269 238.679 387.471H234.184V396.234H232.49V387.471H230.886V396.234H229.191V387.471H217.936V396.234H216.241V387.471H212.998C212.179 387.269 211.541 386.606 211.373 385.776H222.022V378.77H213.005C212.183 378.572 211.542 377.909 211.373 377.075H213.815V370.071H213.012C212.188 369.874 211.543 369.21 211.374 368.376H218.491V361.358H220.186V368.376H229.397V361.358H231.092V368.376H232.838V361.358H234.533ZM223.717 378.77V385.776H224.998V378.77H223.717ZM226.692 378.77V385.776H235.165V378.77H226.692ZM215.509 370.071V377.075H228.144V370.071H215.509ZM229.839 370.071V377.075H236.927V370.071H229.839Z" fill="#FDA425"/>
<path fill-rule="evenodd" clip-rule="evenodd" d="M440.941 253.302C439.782 252.73 438.983 251.535 438.983 250.155V243.141C438.983 241.205 440.554 239.634 442.49 239.634H495.748C497.684 239.634 499.255 241.205 499.255 243.141V250.155C499.255 251.535 498.457 252.73 497.296 253.302C498.457 253.875 499.255 255.069 499.255 256.449V263.463C499.255 264.676 498.638 265.746 497.701 266.376C498.638 267.006 499.255 268.076 499.255 269.289V276.304C499.255 277.517 498.638 278.586 497.701 279.217C498.638 279.846 499.255 280.917 499.255 282.128V289.143C499.255 290.356 498.638 291.426 497.701 292.056C498.638 292.687 499.255 293.756 499.255 294.969V301.984C499.255 303.196 498.638 304.267 497.701 304.897C498.638 305.526 499.255 306.597 499.255 307.809V314.823C499.255 316.037 498.638 317.106 497.701 317.736C498.638 318.367 499.255 319.436 499.255 320.65V327.664C499.255 328.876 498.638 329.947 497.701 330.576C498.638 331.206 499.255 332.275 499.255 333.489V340.503C499.255 341.717 498.638 342.786 497.701 343.417C498.638 344.047 499.255 345.116 499.255 346.33V353.344C499.255 354.556 498.638 355.627 497.701 356.256C498.638 356.886 499.255 357.956 499.255 359.169V366.184C499.255 367.397 498.638 368.467 497.701 369.097C498.638 369.726 499.255 370.797 499.255 372.01V379.023C499.255 380.236 498.638 381.308 497.701 381.936C498.638 382.567 499.255 383.636 499.255 384.85V391.864C499.255 393.799 497.684 395.37 495.748 395.37H442.49C440.554 395.37 438.983 393.799 438.983 391.864V384.85C438.983 383.636 439.6 382.567 440.537 381.936C439.6 381.308 438.983 380.236 438.983 379.023V372.01C438.983 370.797 439.6 369.726 440.537 369.097C439.6 368.467 438.983 367.397 438.983 366.184V359.169C438.983 357.956 439.6 356.886 440.537 356.256C439.6 355.627 438.983 354.556 438.983 353.344V346.33C438.983 345.116 439.6 344.047 440.537 343.417C439.6 342.786 438.983 341.717 438.983 340.503V333.489C438.983 332.275 439.6 331.206 440.537 330.576C439.6 329.947 438.983 328.876 438.983 327.664V320.65C438.983 319.436 439.6 318.367 440.537 317.736C439.6 317.106 438.983 316.037 438.983 314.823V307.809C438.983 306.597 439.6 305.526 440.537 304.897C439.6 304.267 438.983 303.196 438.983 301.984V294.969C438.983 293.756 439.6 292.687 440.537 292.056C439.6 291.426 438.983 290.356 438.983 289.143V282.128C438.983 280.917 439.6 279.846 440.537 279.217C439.6 278.586 438.983 277.517 438.983 276.304V269.289C438.983 268.076 439.6 267.006 440.537 266.376C439.6 265.746 438.983 264.676 438.983 263.463V256.449C438.983 255.069 439.782 253.875 440.941 253.302Z" fill="#FFCD80"/>
<path fill-rule="evenodd" clip-rule="evenodd" d="M482.881 239.634V251.523H489.371C489.458 251.147 489.795 250.866 490.197 250.866C490.598 250.866 490.936 251.147 491.022 251.523H498.977C498.672 252.242 498.135 252.838 497.459 253.217H491.044V264.727H499.02C498.759 265.403 498.294 265.978 497.701 266.376C497.723 266.391 497.743 266.406 497.765 266.421H496.279V277.849C496.279 277.876 496.278 277.903 496.276 277.931H498.855C498.582 278.449 498.184 278.891 497.701 279.217C497.881 279.337 498.048 279.474 498.203 279.625H489.26V290.495H498.984C498.718 291.132 498.267 291.675 497.701 292.056C497.764 292.098 497.826 292.144 497.886 292.19H494.351V303.323H498.989C498.723 303.967 498.27 304.512 497.701 304.897C497.759 304.934 497.815 304.975 497.871 305.017H488.334V316.167H498.989C498.721 316.808 498.27 317.353 497.701 317.736C497.76 317.777 497.818 317.818 497.874 317.862H494V329.115H498.94C498.67 329.71 498.238 330.215 497.701 330.576C497.808 330.649 497.911 330.727 498.01 330.81H486.67V341.803H499.006C498.742 342.463 498.284 343.025 497.701 343.417C497.74 343.442 497.777 343.469 497.815 343.498H491.598V354.482H499.065C498.83 355.168 498.389 355.758 497.815 356.176H486.133V367.504H498.998C498.733 368.155 498.277 368.709 497.701 369.097C497.749 369.129 497.796 369.163 497.843 369.199H492.649V380.179H499.06C498.82 380.867 498.372 381.457 497.791 381.874H480.649V395.37H478.954V381.874H475.531V395.37H473.836V381.874H451.576V395.37H449.881V381.874H440.448C439.867 381.457 439.419 380.867 439.179 380.179H442.19V369.199H440.396C440.441 369.163 440.489 369.129 440.538 369.097C439.962 368.709 439.506 368.155 439.24 367.504H450.127V356.176H440.424C439.85 355.758 439.407 355.168 439.172 354.482H443.409V343.498H440.423C440.46 343.469 440.499 343.442 440.538 343.417C439.955 343.025 439.496 342.463 439.233 341.803H448.437V330.81H440.228C440.328 330.727 440.429 330.649 440.538 330.576C440.001 330.215 439.568 329.71 439.297 329.115H442.982V317.862H440.363C440.421 317.818 440.479 317.777 440.538 317.736C439.968 317.353 439.516 316.808 439.25 316.167H449.047V305.017H440.368C440.424 304.975 440.48 304.934 440.538 304.897C439.967 304.512 439.514 303.967 439.248 303.323H441.8V292.19H440.351C440.412 292.144 440.475 292.098 440.538 292.056C439.97 291.675 439.521 291.132 439.253 290.495H444.79V279.625H440.036C440.19 279.474 440.358 279.337 440.538 279.217C440.055 278.891 439.657 278.449 439.384 277.931H454.76V266.421H446.081C445.971 266.473 445.849 266.502 445.72 266.502C445.59 266.502 445.468 266.473 445.358 266.421H440.472C440.494 266.406 440.516 266.391 440.538 266.376C439.945 265.978 439.48 265.403 439.218 264.727H444.873V253.217H440.78C440.104 252.838 439.565 252.242 439.26 251.523H444.893C444.981 251.147 445.317 250.866 445.72 250.866C446.122 250.866 446.459 251.147 446.546 251.523H457.195V239.634H458.89V251.523H460.729V239.634H462.424V251.523H467.294C467.381 251.147 467.718 250.866 468.121 250.866C468.523 250.866 468.86 251.147 468.947 251.523H471.516C471.604 251.147 471.939 250.866 472.343 250.866C472.744 250.866 473.082 251.147 473.168 251.523H481.186V239.634H482.881ZM443.885 369.199V380.179H459.043V369.199H443.885ZM460.737 369.199V380.179H463.327V369.199H460.737ZM465.022 369.199V380.179H490.954V369.199H465.022ZM451.821 356.176V367.504H467.564V356.176H451.821ZM481.205 356.176H469.258V367.504H481.199V356.266L481.205 356.176ZM482.894 367.504H484.438V356.176H482.889C482.893 356.205 482.894 356.236 482.894 356.266V367.504ZM479.262 343.498V354.482H489.904V343.498H479.262ZM460.785 354.482H477.568V343.498H460.77C460.78 343.549 460.785 343.601 460.785 343.654V354.482ZM459.104 343.498H445.103V354.482H459.09V343.654C459.09 343.603 459.093 343.551 459.104 343.5V343.498ZM472.946 330.81V341.803H484.975V330.81H472.946ZM469.118 330.81V341.803H471.251V330.81H469.118ZM450.132 330.81V341.803H467.423V330.81H450.132ZM457.553 317.862V329.115H478.296V317.862H457.553ZM444.676 317.862V329.115H455.858V317.862H444.676ZM479.991 317.862V329.115H492.305V317.862H479.991ZM465.418 305.017V316.167H467.099V305.017H465.418ZM456.853 316.167H463.723V305.017H450.742V316.167H456.558C456.606 316.159 456.655 316.154 456.706 316.154C456.756 316.154 456.806 316.159 456.853 316.167ZM468.794 305.017V316.167H486.64V305.017H468.794ZM487.739 303.323H492.656V292.19H478.783V303.323H487.234C487.314 303.297 487.399 303.284 487.487 303.284C487.575 303.284 487.66 303.297 487.739 303.323ZM474.7 292.19V303.323H477.088V292.19H474.7ZM443.495 292.19V303.323H460.1V292.19H443.495ZM461.795 292.19V303.323H473.005V292.19H461.795ZM446.485 279.625V290.495H448.554V279.625H446.485ZM469.755 279.625V290.495H487.565V279.625H469.755ZM450.249 279.625V290.495H468.06V279.625H450.249ZM459.454 266.421H456.455V277.931H459.46C459.456 277.903 459.454 277.876 459.454 277.849V266.421ZM479.944 266.421H472.704C472.595 266.473 472.472 266.502 472.343 266.502C472.212 266.502 472.09 266.473 471.98 266.421H468.482C468.372 266.473 468.25 266.502 468.121 266.502C467.991 266.502 467.869 266.473 467.759 266.421H461.149V277.849C461.149 277.876 461.149 277.903 461.146 277.931H479.947C479.944 277.903 479.944 277.876 479.944 277.849V266.421ZM494.584 266.421H490.559C490.449 266.473 490.327 266.502 490.197 266.502C490.068 266.502 489.944 266.473 489.836 266.421H481.638V277.849C481.638 277.876 481.637 277.903 481.633 277.931H494.588C494.586 277.903 494.584 277.876 494.584 277.849V266.421ZM446.568 253.217V264.727H467.274V253.217H446.568ZM468.969 253.217V264.727H471.495V253.217H468.969ZM473.19 253.217V264.727H489.349V253.217H473.19Z" fill="#FDA425"/>
<path fill-rule="evenodd" clip-rule="evenodd" d="M350.83 331.05C349.893 330.421 349.276 329.35 349.276 328.139V321.124C349.276 319.189 350.847 317.616 352.783 317.616H406.04C407.977 317.616 409.548 319.189 409.548 321.124V328.139C409.548 329.35 408.931 330.421 407.994 331.05C408.931 331.681 409.548 332.75 409.548 333.963V340.978C409.548 342.191 408.931 343.261 407.994 343.891C408.931 344.52 409.548 345.591 409.548 346.804V353.817C409.548 355.031 408.931 356.102 407.994 356.73C408.931 357.361 409.548 358.43 409.548 359.644V366.658C409.548 367.872 408.931 368.941 407.994 369.571C408.931 370.2 409.548 371.271 409.548 372.483V379.498C409.548 380.711 408.931 381.78 407.994 382.411C408.931 383.041 409.548 384.111 409.548 385.324V392.339C409.548 394.274 407.977 395.845 406.04 395.845H352.783C350.847 395.845 349.276 394.274 349.276 392.339V385.324C349.276 384.111 349.893 383.041 350.83 382.411C349.893 381.78 349.276 380.711 349.276 379.498V372.483C349.276 371.271 349.893 370.2 350.83 369.571C349.893 368.941 349.276 367.872 349.276 366.658V359.644C349.276 358.43 349.893 357.361 350.83 356.73C349.893 356.102 349.276 355.031 349.276 353.817V346.804C349.276 345.591 349.893 344.52 350.83 343.891C349.893 343.261 349.276 342.191 349.276 340.978V333.963C349.276 332.75 349.893 331.681 350.83 331.05Z" fill="#FFCD80"/>
<path fill-rule="evenodd" clip-rule="evenodd" d="M397.032 329.61H409.224C408.953 330.196 408.524 330.694 407.994 331.05C408.109 331.128 408.219 331.213 408.326 331.304H403.298V342.278V342.28H409.297C409.034 342.939 408.575 343.5 407.994 343.891C408.033 343.918 408.073 343.945 408.112 343.974H398.076V354.875C398.076 354.924 398.073 354.971 398.064 355.017H409.336C409.083 355.71 408.619 356.302 408.021 356.712H404.928V367.685C404.928 367.733 404.923 367.78 404.916 367.826H409.348C409.104 368.516 408.651 369.105 408.065 369.521H398.83V380.687H409.339C409.09 381.38 408.629 381.97 408.034 382.382H404.513V395.845H402.818V382.382H391.885C391.885 382.397 391.887 382.411 391.887 382.424V395.845H390.192V382.424C390.192 382.411 390.192 382.397 390.192 382.382H381.834C381.725 382.433 381.607 382.46 381.481 382.46C381.354 382.46 381.236 382.433 381.127 382.382H370.269V395.845H368.574V382.382H365.612V395.845H363.917V382.382H350.788C350.193 381.97 349.732 381.38 349.483 380.687H361.177V369.521H350.758C350.173 369.105 349.719 368.516 349.475 367.826H353.779V356.712H350.803C350.203 356.302 349.739 355.71 349.486 355.017H359.89V343.974H350.71C350.751 343.945 350.79 343.918 350.83 343.891C350.247 343.5 349.79 342.939 349.525 342.28H353.232V331.304H350.498C350.603 331.213 350.713 331.128 350.83 331.05C350.298 330.694 349.871 330.196 349.598 329.61H357.389V317.616H359.084V329.61H360.819V317.616H362.514V329.61H378.078V317.616H379.773V329.61H395.337V317.616H397.032V329.61ZM362.871 369.521V380.687H380.634V369.521H362.871ZM382.329 369.521V380.687H393.78V369.521H382.329ZM395.475 369.521V380.687H397.135V369.521H395.475ZM355.474 356.712V367.826H369.184V356.712H355.474ZM387.504 356.712H370.879V367.826H387.55C387.521 367.739 387.504 367.646 387.504 367.55V356.712ZM403.233 356.712H389.199V367.55C389.199 367.646 389.184 367.739 389.153 367.826H403.243C403.237 367.78 403.233 367.733 403.233 367.685V356.712ZM361.585 343.974V355.017H374.607V343.974H361.585ZM376.302 343.974V355.017H378.305V343.974H376.302ZM396.381 343.974H380V355.017H388.091C388.172 354.99 388.26 354.976 388.352 354.976C388.443 354.976 388.531 354.99 388.614 355.017H396.395C396.386 354.971 396.381 354.924 396.381 354.875V343.974ZM354.927 331.304V342.28H369.85V331.304H354.927ZM371.545 331.304V342.28H385.039V331.304H371.545ZM386.733 331.304V342.28H389.001V331.304H386.733ZM401.603 331.304H390.696V342.28H401.603V342.278V331.304Z" fill="#FDA425"/>
<path fill-rule="evenodd" clip-rule="evenodd" d="M409.567 280.852H425.892C453.979 280.852 476.783 307.33 476.783 339.944C476.783 370.035 457.401 395.37 432.337 399.035C430.236 399.344 409.677 399.035 409.677 399.035C381.59 399.035 358.786 372.557 358.786 339.944C358.786 307.373 381.531 280.92 409.567 280.852Z" fill="#FDA425"/>
<path d="M409.676 399.036C437.782 399.036 460.566 372.579 460.566 339.944C460.566 307.308 437.782 280.852 409.676 280.852C381.57 280.852 358.786 307.308 358.786 339.944C358.786 372.579 381.57 399.036 409.676 399.036Z" fill="#FFCD80"/>
<path fill-rule="evenodd" clip-rule="evenodd" d="M409.824 304.817L408.063 304.721L408.1 302.098L411.173 302.265C411.901 302.305 412.48 302.924 412.469 303.648L412.406 308.085C415.094 308.352 417.668 308.924 420.126 309.798C423.266 310.914 426.22 312.524 428.983 314.627C429.297 314.863 429.492 315.221 429.525 315.604C429.555 315.988 429.42 316.359 429.148 316.622L423.14 322.449C422.686 322.887 421.972 322.921 421.446 322.528C418.72 320.492 415.656 319.175 412.255 318.575L412.044 333.36C424.694 336.735 430.704 343.134 430.402 352.205C430.257 357.134 428.36 361.121 424.731 364.152C421.414 367.029 417.019 368.759 411.529 369.299L411.42 376.922C411.409 377.645 410.814 378.199 410.086 378.159L407.069 377.995L407.107 375.375L408.812 375.468L408.919 368.01C408.928 367.345 409.432 366.815 410.094 366.772C415.494 366.415 419.791 364.89 422.983 362.124C426.06 359.554 427.653 356.185 427.776 352.018C428.048 343.856 422.153 338.521 410.449 335.637C409.832 335.483 409.393 334.918 409.402 334.29L409.65 316.992C409.655 316.63 409.811 316.294 410.078 316.059C410.345 315.827 410.702 315.717 411.064 315.762C415.128 316.238 418.786 317.581 422.034 319.786L426.173 315.773C424.013 314.292 421.735 313.122 419.334 312.271C416.712 311.337 413.95 310.783 411.043 310.6C410.322 310.555 409.751 309.938 409.761 309.217L409.824 304.817ZM411.681 358.691C413.598 358.217 415.006 357.48 415.862 356.419C416.396 355.733 416.791 354.949 417.046 354.071L419.571 354.907C419.22 356.094 418.68 357.153 417.946 358.1C416.541 359.838 414.114 361.053 410.598 361.605C410.21 361.665 409.807 361.548 409.501 361.282C409.199 361.015 409.025 360.63 409.03 360.235L409.163 350.964L411.789 351.106L411.681 358.691ZM397.839 320.815C398.317 319.655 398.932 318.701 399.671 317.947C399.689 317.929 399.71 317.91 399.728 317.891C401.393 316.397 403.357 315.59 405.614 315.468C405.984 315.449 406.355 315.59 406.629 315.852C406.904 316.116 407.057 316.481 407.051 316.851L406.943 324.443L404.316 324.3L404.402 318.314C403.35 318.588 402.403 319.1 401.558 319.85C401.033 320.394 400.608 321.086 400.265 321.918C400.258 321.94 400.247 321.961 400.236 321.983C399.826 322.842 399.628 323.9 399.61 325.141L396.984 324.998C397.007 323.353 397.302 321.961 397.839 320.815Z" fill="#FDA31F"/>
<path fill-rule="evenodd" clip-rule="evenodd" d="M401.178 323.896C399.786 323.897 398.538 323.898 397.446 323.899L398.785 323.898C399.534 323.897 400.378 323.897 401.333 323.896L401.367 323.896C402.146 323.895 403.052 323.894 404.103 323.894L400.63 323.896L401.969 323.895L406.323 323.892C406.525 323.891 406.619 323.891 406.578 323.891C406.538 323.891 406.366 323.892 406.114 323.892C404.163 323.894 402.51 323.895 401.178 323.896Z" fill="#FDA31F"/>
<path fill-rule="evenodd" clip-rule="evenodd" d="M411.718 341.787L414.644 341.784L413.389 341.786L409.721 341.789C409.542 341.789 409.453 341.789 409.476 341.789C409.501 341.789 409.634 341.789 409.845 341.789C411.875 341.787 413.594 341.785 414.955 341.784L414.987 341.784C416.369 341.782 417.57 341.781 418.587 341.78C419.155 341.78 419.611 341.779 419.959 341.779L418.422 341.781C418.147 341.781 417.783 341.781 417.332 341.782C416.601 341.782 415.743 341.783 414.753 341.784C413.903 341.785 412.899 341.786 411.718 341.787Z" fill="#FDA31F"/>
<path fill-rule="evenodd" clip-rule="evenodd" d="M404.103 342.86C391.93 339.488 386.214 333.266 386.617 324.546C386.798 319.286 388.55 315.261 391.792 312.436C394.759 309.851 399.019 308.268 404.605 307.763L404.67 303.204C404.681 302.48 405.277 301.924 406.002 301.964L408.156 302.08L408.118 304.703L407.28 304.658L407.217 309.058C407.208 309.725 406.7 310.258 406.034 310.298C400.552 310.637 396.384 311.987 393.563 314.445C390.817 316.84 389.401 320.283 389.245 324.759C388.884 332.569 394.494 337.726 405.709 340.6C406.32 340.757 406.756 341.319 406.747 341.941L406.487 360.069C406.482 360.439 406.319 360.781 406.044 361.016C405.766 361.25 405.398 361.351 405.029 361.297C401.743 360.811 398.966 359.925 396.702 358.661C394.709 357.655 392.93 356.445 391.362 355.028L386.265 358.986C388.673 360.839 391.348 362.437 394.28 363.782C397.702 365.314 401.307 366.205 405.096 366.461C405.818 366.512 406.386 367.126 406.376 367.843L406.269 375.3L407.163 375.349L407.126 377.969L404.916 377.849C404.191 377.81 403.611 377.192 403.622 376.469L403.729 368.97C400.086 368.593 396.605 367.658 393.277 366.168C389.558 364.463 386.245 362.382 383.325 359.926C383.019 359.668 382.838 359.286 382.836 358.89C382.832 358.494 383.009 358.125 383.316 357.887L390.578 352.248C391.091 351.847 391.843 351.907 392.323 352.391C393.889 353.965 395.729 355.279 397.834 356.338L397.89 356.367C399.567 357.307 401.565 357.999 403.88 358.453L404.103 342.86Z" fill="#FDA31F"/>
<path fill-rule="evenodd" clip-rule="evenodd" d="M407.231 292.546C427.759 292.546 444.246 313.895 444.246 340.018C444.246 366.139 427.759 387.488 407.231 387.488C406.483 387.488 405.875 388.095 405.875 388.843C405.875 389.592 406.483 390.2 407.231 390.2C429.058 390.2 446.956 367.792 446.956 340.018C446.956 312.242 429.058 289.835 407.231 289.835C406.483 289.835 405.875 290.442 405.875 291.191C405.875 291.939 406.483 292.546 407.231 292.546Z" fill="#FDA425"/>
<path fill-rule="evenodd" clip-rule="evenodd" d="M407.231 387.488C386.702 387.488 370.217 366.139 370.217 340.018C370.217 313.895 386.702 292.546 407.231 292.546C407.979 292.546 408.586 291.939 408.586 291.191C408.586 290.442 407.979 289.835 407.231 289.835C385.405 289.835 367.505 312.242 367.505 340.018C367.505 367.792 385.405 390.2 407.231 390.2C407.979 390.2 408.586 389.592 408.586 388.843C408.586 388.095 407.979 387.488 407.231 387.488Z" fill="#FDA425"/>
<path fill-rule="evenodd" clip-rule="evenodd" d="M446.932 394.187H427.514C426.767 394.187 426.158 393.578 426.158 392.831C426.158 392.082 426.767 391.475 427.514 391.475H450.839C450.996 391.475 451.147 391.502 451.288 391.552C449.878 392.509 448.425 393.389 446.932 394.187ZM469.086 371.357C468.594 372.277 468.084 373.182 467.552 374.069H448.905C448.156 374.069 447.549 373.462 447.549 372.713C447.549 371.964 448.156 371.357 448.905 371.357H469.086ZM472.765 363.08C472.433 363.997 472.08 364.9 471.713 365.792H450.839C450.089 365.792 449.483 365.185 449.483 364.436C449.483 363.688 450.089 363.08 450.839 363.08H472.765ZM476.644 335.559C476.702 336.459 476.741 337.363 476.763 338.271H458.143C457.394 338.271 456.787 337.664 456.787 336.915C456.787 336.168 457.394 335.559 458.143 335.559H476.644ZM473.682 319.598C473.963 320.493 474.229 321.398 474.475 322.31H454.189C453.442 322.31 452.833 321.703 452.833 320.954C452.833 320.207 453.442 319.598 454.189 319.598H473.682ZM470.899 312.353C471.304 313.245 471.692 314.148 472.058 315.065H453.459C452.711 315.065 452.103 314.458 452.103 313.709C452.103 312.962 452.711 312.353 453.459 312.353H470.899ZM452.862 289.836C454.031 290.686 455.169 291.59 456.274 292.547H434.818C434.071 292.547 433.462 291.939 433.462 291.191C433.462 290.442 434.071 289.836 434.818 289.836H452.862Z" fill="#FFCD80"/>
<path fill-rule="evenodd" clip-rule="evenodd" d="M370.436 185.924C369.43 182.328 366.548 172.054 365.733 167.08L375.889 167.087C375.889 167.087 381.412 186.178 383.215 191.475L373.362 195.247C372.27 192.449 371.449 189.541 370.436 185.924Z" fill="#82B5B2"/>
<path d="M372.191 187.483C374.909 187.483 377.113 185.177 377.113 182.332C377.113 179.487 374.909 177.181 372.191 177.181C369.472 177.181 367.269 179.487 367.269 182.332C367.269 185.177 369.472 187.483 372.191 187.483Z" fill="#A8CFCC" fill-opacity="0.63"/>
<path fill-rule="evenodd" clip-rule="evenodd" d="M368.686 188.666C369.487 186.432 373.96 174.842 376.719 171.358L389.57 178.581C389.57 178.581 382.643 196.985 381.064 202.284L365.842 198.143C366.499 195.245 367.431 192.161 368.686 188.666Z" fill="#A8CFCC"/>
<path d="M377.58 192.754C380.299 192.754 382.502 190.448 382.502 187.603C382.502 184.758 380.299 182.452 377.58 182.452C374.862 182.452 372.658 184.758 372.658 187.603C372.658 190.448 374.862 192.754 377.58 192.754Z" fill="#82B5B2"/>
<path d="M409.374 189.638C415.369 189.638 420.23 184.777 420.23 178.781C420.23 172.786 415.369 167.925 409.374 167.925C403.378 167.925 398.518 172.786 398.518 178.781C398.518 184.777 403.378 189.638 409.374 189.638Z" fill="#E86135"/>
<path fill-rule="evenodd" clip-rule="evenodd" d="M402.152 170.678C404.072 168.967 406.603 167.926 409.374 167.926C415.366 167.926 420.23 172.79 420.23 178.782C420.23 180.837 419.657 182.761 418.664 184.4C410.602 180.778 411.784 172.04 411.784 172.04C407.352 173.487 404.042 172.021 402.152 170.678Z" fill="black"/>
<path fill-rule="evenodd" clip-rule="evenodd" d="M362.853 316.76C362.853 316.76 359.679 310.618 362.853 306.017L357.218 296.116C357.218 296.116 354.48 294.362 351.37 292.369C344.338 287.863 340.305 279.899 340.832 271.566C340.873 270.931 340.945 270.349 341.056 269.84C337.822 266.789 335.151 259.941 336.134 253.389C336.134 253.389 336.134 253.389 336.134 253.389C337.502 244.263 345.082 237.348 354.295 236.823C369.12 235.983 394.563 235.408 410.206 239.894L406.687 231.135C406.687 231.135 381.656 240.086 375.316 219.531C360.947 225.334 344.945 229.575 329.123 231.87C322.509 232.833 315.982 229.626 312.703 223.801C312.696 223.805 312.696 223.805 312.696 223.805C309.922 218.878 310.808 212.702 314.855 208.753C318.924 204.827 325.864 199.749 337.715 193.906C337.715 193.906 349.587 187.628 356.539 183.952C359.645 182.31 363.328 182.167 366.551 183.564C373.4 186.53 384.714 191.431 384.714 191.431L386.035 188.095C393.892 189.403 401.612 191.783 409.18 194.729C417.218 197.867 423.447 204.412 426.18 212.595C432.912 232.745 445.622 271.435 447.29 281.126H452.055C454.733 281.126 457.053 282.984 457.638 285.597C458.094 287.639 458.534 289.61 458.534 289.61C458.534 289.61 461.57 293.005 462.458 296.116C462.819 297.384 460.797 298.862 458.534 296.487C457.865 295.784 451.364 290.654 448.444 290.334C446.21 290.088 444.234 289.832 442.392 289.607C436.737 288.914 431.717 285.65 428.787 280.76C426.828 277.493 425.026 274.486 425.026 274.486C425.026 274.486 418.918 284.282 402.152 282.514L404.757 316.375C404.757 316.375 401.412 315.584 400.293 310.116C400.293 310.116 381.399 307.6 370.637 303.043C370.637 303.043 366.392 307.257 362.853 316.76Z" fill="url(#paint2_linear_214_574)"/>
<path fill-rule="evenodd" clip-rule="evenodd" d="M447.201 280.642C447.234 280.811 447.262 280.972 447.29 281.126H449.545C450.637 281.892 452.296 283.096 454.094 284.529L454.672 283.879C454.921 283.599 455.35 283.574 455.629 283.823C455.909 284.07 455.934 284.499 455.685 284.779L455.148 285.384C456.168 286.226 457.205 287.127 458.187 288.053L458.534 289.61L447.49 281.357C447.247 281.198 447.14 280.908 447.201 280.642Z" fill="#D7441E"/>
<path fill-rule="evenodd" clip-rule="evenodd" d="M382.746 306.815L392.133 280.164C392.289 279.721 392.774 279.489 393.214 279.645C393.655 279.801 393.887 280.284 393.733 280.726L384.405 307.205C383.854 307.079 383.302 306.949 382.746 306.815ZM357.218 296.116C357.218 296.116 360.852 298.07 363.979 299.687C367.941 301.739 372.091 303.658 370.637 303.043C370.637 303.043 370.232 303.446 369.568 304.281C366.004 302.685 361.901 300.533 358.756 298.818L357.218 296.116ZM339.763 268.376C342.483 255.329 352.651 247.916 364.48 243.793C381.201 237.965 401.22 238.755 407.482 239.185C408.403 239.402 409.74 239.689 410.601 239.935C410.65 240.056 411.028 240.29 411.014 240.429C410.965 240.895 411.611 241.235 411.145 241.187C411.145 241.187 385.144 239.544 365.038 245.394C352.555 249.025 343.925 258.071 341.056 269.84C340.612 269.42 340.178 268.929 339.763 268.376Z" fill="#D7441E"/>
<path fill-rule="evenodd" clip-rule="evenodd" d="M402.303 284.19C399.18 283.711 395.218 282.411 391.039 280.711C378.792 275.735 364.616 267.408 364.616 267.408C364.213 267.171 364.079 266.651 364.314 266.248C364.552 265.845 365.072 265.71 365.475 265.947C365.475 265.947 379.531 274.207 391.676 279.142C396.058 280.923 402.532 282.553 402.153 282.514L402.303 284.19Z" fill="#8A2208"/>
<path fill-rule="evenodd" clip-rule="evenodd" d="M409.24 237.486L406.687 231.135C406.687 231.135 381.656 240.086 375.316 219.531C360.947 225.334 344.945 229.575 329.123 231.87C322.509 232.833 315.982 229.626 312.703 223.801C312.696 223.805 312.696 223.805 312.696 223.805C309.922 218.878 310.808 212.702 314.855 208.753C318.924 204.827 325.864 199.749 337.715 193.906C337.715 193.906 349.587 187.628 356.539 183.952C359.645 182.31 363.328 182.167 366.551 183.564C373.4 186.53 384.714 191.431 384.714 191.431L386.035 188.095C393.892 189.403 401.612 191.783 409.18 194.729C417.218 197.867 423.447 204.412 426.18 212.595C430.224 224.697 436.423 243.487 441.09 258.664L421.581 264.614C417.349 255.739 413.058 246.936 409.307 237.497L409.24 237.486Z" fill="#D7441E"/>
<path fill-rule="evenodd" clip-rule="evenodd" d="M403.057 232.13C402.437 229.031 402.291 225.779 402.349 222.461C402.351 222.279 402.483 222.124 402.662 222.09C402.842 222.056 403.02 222.153 403.089 222.322C404.743 226.354 408.794 236.222 408.794 236.222H408.731L406.687 231.135C406.687 231.135 405.282 231.637 403.057 232.13ZM349.419 212.08L328.593 223.812C328.184 224.042 328.04 224.559 328.269 224.966C328.499 225.374 329.016 225.518 329.425 225.289L350.251 213.557C350.66 213.327 350.804 212.81 350.573 212.403C350.344 211.995 349.827 211.851 349.419 212.08ZM370.93 221.235C371.718 215.535 373.593 211.538 374.898 209.333C374.981 209.212 375.142 209.17 375.276 209.235C375.408 209.3 375.474 209.453 375.428 209.594C374.081 214.437 375.238 219.223 375.313 219.517L375.316 219.531C373.871 220.115 372.408 220.683 370.93 221.235Z" fill="#8A2208"/>
<path fill-rule="evenodd" clip-rule="evenodd" d="M338.625 193.425L356.538 183.952C359.645 182.31 363.327 182.167 366.551 183.564L384.22 191.218C384.339 191.297 384.447 191.368 384.544 191.431C387.489 193.362 385.162 195.27 384.339 194.998C386.35 195.954 386.282 197.542 385.808 198.231C385.027 199.366 382.23 198.952 382.23 198.952C383.008 199.229 383.722 200.747 383.118 201.873C382.149 203.683 379.497 202.584 379.497 202.584C379.978 205.108 377.368 205.116 374.184 204.442C371.718 203.92 370.588 203.367 368.49 202.844C365.098 211.887 354.972 210.842 354.972 210.842L348.3 214.625L338.625 193.425Z" fill="url(#paint3_linear_214_574)"/>
<path fill-rule="evenodd" clip-rule="evenodd" d="M379.507 202.636L368.168 198.234C367.819 198.099 367.646 197.706 367.782 197.357C367.917 197.008 368.31 196.835 368.659 196.971L382.692 202.418C381.536 203.429 379.497 202.584 379.497 202.584C379.501 202.601 379.504 202.619 379.507 202.636ZM382.402 199.034L369.51 194.029C369.161 193.893 368.988 193.5 369.124 193.152C369.259 192.803 369.653 192.63 370.002 192.765L384.778 198.502C384.914 198.554 385.022 198.645 385.097 198.758C383.978 199.211 382.231 198.952 382.231 198.952C382.288 198.973 382.346 199 382.402 199.034ZM384.476 195.022L371.056 189.812C370.707 189.677 370.532 189.284 370.668 188.935C370.803 188.586 371.196 188.413 371.546 188.548L385.829 194.093C385.532 194.678 384.893 195.047 384.476 195.022Z" fill="#D7441E"/>
<path fill-rule="evenodd" clip-rule="evenodd" d="M343.84 390.103C342.881 389.457 342.247 388.361 342.247 387.119V379.931C342.247 377.948 343.857 376.338 345.842 376.338H400.414C402.396 376.338 404.006 377.948 404.006 379.931V387.119C404.006 388.361 403.374 389.457 402.413 390.103C403.374 390.749 404.006 391.845 404.006 393.087V400.275C404.006 402.259 402.396 403.869 400.414 403.869H345.842C343.857 403.869 342.247 402.259 342.247 400.275V393.087C342.247 391.845 342.881 390.749 343.84 390.103Z" fill="#FFDBA3"/>
<path fill-rule="evenodd" clip-rule="evenodd" d="M387.697 388.647H403.666C403.388 389.239 402.953 389.742 402.414 390.103C402.524 390.178 402.629 390.257 402.731 390.342H397.557V403.869H395.862V390.342H381.696V403.869H380.001V390.342H377.838V403.869H376.144V390.342H354.261V403.869H352.567V390.342H343.525C343.625 390.257 343.73 390.178 343.841 390.103C343.303 389.742 342.868 389.239 342.59 388.647H362.427V376.338H364.121V388.647H366.284V376.338H367.979V388.647H386.002V376.338H387.697V388.647Z" fill="#FDA425"/>
<defs>
<linearGradient id="paint0_linear_214_574" x1="245.688" y1="332.568" x2="245.344" y2="429.437" gradientUnits="userSpaceOnUse">
<stop stop-color="#A8CFCC"/>
<stop offset="1" stop-color="#59A09B"/>
</linearGradient>
<linearGradient id="paint1_linear_214_574" x1="256.791" y1="256.657" x2="261.268" y2="342.655" gradientUnits="userSpaceOnUse">
<stop stop-color="#82B5B2"/>
<stop offset="0.45" stop-color="#A7C6C1"/>
<stop offset="1" stop-color="#FFF0E6"/>
</linearGradient>
<linearGradient id="paint2_linear_214_574" x1="415.532" y1="274.259" x2="319.934" y2="189.548" gradientUnits="userSpaceOnUse">
<stop stop-color="#E86135"/>
<stop offset="0.48" stop-color="#EE734F"/>
<stop offset="1" stop-color="#FFA396"/>
</linearGradient>
<linearGradient id="paint3_linear_214_574" x1="362.361" y1="201.427" x2="369.22" y2="156.397" gradientUnits="userSpaceOnUse">
<stop stop-color="#E86135"/>
<stop offset="1" stop-color="#FFA396"/>
</linearGradient>
</defs>
</svg>
