<svg width="271" height="282" viewBox="0 0 271 282" fill="none" xmlns="http://www.w3.org/2000/svg">
<g clip-path="url(#clip0_214_771)">
<path d="M133.466 281.34C129.107 281.326 124.766 280.764 120.547 279.669L119.715 279.439L118.944 279.053C91.0522 265.068 67.5216 246.597 49.0055 224.152C33.678 205.463 21.728 184.243 13.6929 161.447C4.08409 134.155 -0.538683 105.357 0.0452487 76.4291C0.0570313 75.8219 0.0670031 75.353 0.0670031 75.03C0.0670031 60.9677 7.87263 48.6291 19.9527 43.5957C29.1982 39.7434 113.143 5.2639 119.208 2.77266C130.631 -2.95072 142.816 1.82634 144.767 2.66172C149.141 4.45008 226.742 36.1902 243.512 44.1755C260.795 52.4054 265.406 67.1901 265.406 74.6286C265.406 108.305 259.574 139.778 248.071 168.174C238.781 191.158 225.615 212.377 209.145 230.906C177.369 266.666 145.585 279.343 145.278 279.454C141.479 280.761 137.483 281.4 133.466 281.34ZM125.991 262.825C128.747 263.443 135.091 264.37 139.226 262.861C144.479 260.945 171.083 247.15 195.942 219.174C230.29 180.521 247.718 131.931 247.744 74.7528C247.682 73.5944 246.86 65.3324 235.918 60.1225C219.474 52.2917 138.813 19.3097 138.001 18.9773L137.778 18.8828C136.087 18.1745 130.708 16.6825 127 18.6257L126.257 18.9718C125.358 19.3411 36.2496 55.9398 26.7461 59.8995C20.0982 62.6695 17.7295 69.5317 17.7295 75.03C17.7295 75.4318 17.7191 76.0163 17.7044 76.7717C16.9449 115.895 25.9983 212.165 125.991 262.825Z" fill="#3F3D56"/>
<path d="M122.902 10.8025C122.902 10.8025 32.9837 47.7332 23.3495 51.7474C13.7154 55.7616 8.89837 65.3957 8.89837 75.0298C8.89837 84.664 1.67281 210.376 122.902 271.158C122.902 271.158 133.905 274.202 142.252 271.158C150.6 268.113 256.575 216.731 256.575 74.6284C256.575 74.6284 256.575 60.1772 239.715 52.1488C222.856 44.1204 141.342 10.8025 141.342 10.8025C141.342 10.8025 131.332 6.38684 122.902 10.8025Z" fill="#F9A826"/>
<path opacity="0.1" d="M132.536 39.7055V236.718C132.536 236.718 41.8148 193.048 42.6176 78.2419L132.536 39.7055Z" fill="black"/>
<path d="M133.72 181.3L104.82 144.142L121.626 131.071L135.31 148.664L181.536 99.8662L196.994 114.512L133.72 181.3Z" fill="white"/>
</g>
<defs>
<clipPath id="clip0_214_771">
<rect width="271" height="281.396" fill="white"/>
</clipPath>
</defs>
</svg>
