<svg width="366" height="303" viewBox="0 0 366 303" fill="none" xmlns="http://www.w3.org/2000/svg">
<path fill-rule="evenodd" clip-rule="evenodd" d="M9.90586 279.62L9.64149 267.957H19.4967V256.849H351.701V267.957H359.578V279.664H365.613V291.373H0V279.664H9.90586V279.62ZM35.8249 80.5978H19.4967L187.578 0L355.66 80.5978H337.206V256.849H35.8249V80.5978Z" fill="#FFF1DF"/>
<path fill-rule="evenodd" clip-rule="evenodd" d="M359.578 279.611H9.90605L9.83301 276.391H359.578V279.611ZM351.701 267.889H19.497V264.669H351.701V267.889ZM337.206 256.821H35.8252V253.601H337.206V256.821ZM337.206 84.0865L35.8252 84.5245V81.135L337.206 80.6971V84.0865Z" fill="#FFBDB4"/>
<path fill-rule="evenodd" clip-rule="evenodd" d="M337.206 83.2328L292.23 89.7236V254.35H249.938V86.6122C242.069 87.5807 222.692 89.9852 204.621 92.3817V254.35H162.327V84.3406L117.01 89.7236V254.35H74.7174V84.9682L35.8252 89.7236V82.6108C35.8252 82.6108 64.4302 83.4804 74.7174 84.134V83.1834H117.01V82.6108H166.903L165.388 83.1834H204.621V84.1871L249.938 83.2578V83.1834H292.23V82.6108L337.206 83.1792V83.2328Z" fill="#FFBDB4"/>
<path d="M187.578 69.3152C202.35 69.3152 214.325 57.3404 214.325 42.5688C214.325 27.7972 202.35 15.8224 187.578 15.8224C172.807 15.8224 160.832 27.7972 160.832 42.5688C160.832 57.3404 172.807 69.3152 187.578 69.3152Z" fill="#FFCF84"/>
<path fill-rule="evenodd" clip-rule="evenodd" d="M187.578 21.7066C199.091 21.7066 208.44 31.0546 208.44 42.5687C208.44 54.0829 199.091 63.4309 187.578 63.4309C187.11 63.4309 186.73 63.8106 186.73 64.2783C186.73 64.746 187.11 65.1256 187.578 65.1256C200.027 65.1256 210.135 55.0183 210.135 42.5687C210.135 30.1192 200.027 20.0118 187.578 20.0118C187.11 20.0118 186.73 20.3915 186.73 20.8592C186.73 21.3269 187.11 21.7066 187.578 21.7066Z" fill="#FD9909"/>
<path fill-rule="evenodd" clip-rule="evenodd" d="M187.578 63.4309C176.063 63.4309 166.715 54.0829 166.715 42.5687C166.715 31.0546 176.063 21.7066 187.578 21.7066C188.046 21.7066 188.426 21.3269 188.426 20.8592C188.426 20.3915 188.046 20.0118 187.578 20.0118C175.128 20.0118 165.021 30.1192 165.021 42.5687C165.021 55.0183 175.128 65.1256 187.578 65.1256C188.046 65.1256 188.426 64.746 188.426 64.2783C188.426 63.8106 188.046 63.4309 187.578 63.4309Z" fill="#FD9909"/>
<path fill-rule="evenodd" clip-rule="evenodd" d="M190.797 69.1229L190.25 64.7164C190.192 64.2522 190.523 63.8287 190.987 63.7709C191.452 63.7133 191.874 64.0433 191.933 64.5075L192.474 68.8672C191.921 68.9697 191.362 69.0551 190.797 69.1229ZM195.799 68.0256L194.283 63.5544C194.134 63.1114 194.372 62.6299 194.816 62.4799C195.258 62.3297 195.739 62.5675 195.888 63.0103L197.395 67.4531C196.871 67.6602 196.339 67.8512 195.799 68.0256ZM172.833 64.8822L175.189 61.0085C175.431 60.6089 175.953 60.4818 176.353 60.7248C176.753 60.9679 176.88 61.4895 176.638 61.8891L174.276 65.7731C173.784 65.4909 173.303 65.1935 172.833 64.8822ZM209.583 57.7658L205.691 54.8851C205.316 54.6069 205.237 54.0759 205.514 53.6998C205.792 53.3239 206.323 53.2446 206.699 53.5227L210.505 56.3397C210.214 56.8254 209.905 57.3011 209.583 57.7658ZM162.158 50.9054L166.732 48.8468C167.158 48.6548 167.661 48.8453 167.852 49.2717C168.044 49.6982 167.854 50.2002 167.427 50.3922L162.74 52.5023C162.529 51.9782 162.334 51.4459 162.158 50.9054ZM213.531 36.0814C213.666 36.6275 213.786 37.18 213.888 37.7384L209.378 38.8018C208.924 38.9093 208.467 38.6268 208.36 38.1717C208.251 37.7165 208.534 37.2598 208.989 37.1523L213.531 36.0814ZM165.476 27.5075L169.507 30.1434C169.898 30.3995 170.008 30.9251 169.752 31.3165C169.496 31.7078 168.971 31.8178 168.58 31.5618L164.566 28.9365C164.855 28.4497 165.16 27.9732 165.476 27.5075ZM168.107 24.238L171.384 26.6482C171.761 26.9253 171.842 27.4563 171.564 27.8329C171.288 28.2096 170.756 28.2904 170.379 28.0133L166.981 25.5129C167.342 25.0762 167.719 24.651 168.107 24.238ZM203.037 20.746C203.498 21.0734 203.949 21.4149 204.387 21.7706L201.457 25.465C201.166 25.8314 200.632 25.8927 200.266 25.6021C199.9 25.3114 199.839 24.7779 200.129 24.4115L203.037 20.746ZM198.498 18.1497C199.015 18.3817 199.524 18.6298 200.022 18.8923L197.956 22.7673C197.736 23.18 197.222 23.3362 196.809 23.1163C196.397 22.8961 196.241 22.3824 196.461 21.9698L198.498 18.1497ZM181.58 16.4988L182.773 20.7526C182.898 21.2029 182.636 21.671 182.185 21.7972C181.734 21.9237 181.266 21.6606 181.141 21.2102L179.941 16.9305C180.48 16.7698 181.026 16.6258 181.58 16.4988Z" fill="#FD9909"/>
<path d="M180.637 47.3864C181.99 49.3626 183.819 50.5871 186.139 51.1347C188.921 51.7129 190.537 50.8917 191.077 48.6909C191.469 46.8856 190.781 45.5915 189.012 44.8086C188.176 44.4814 187.281 44.1411 186.304 43.7469C184.558 43.0047 183.326 41.9119 182.63 40.509C181.911 39.0655 181.759 37.4614 182.143 35.6902C182.601 33.5784 183.568 32.0069 185.102 30.9891C186.576 29.9581 188.417 29.6861 190.602 30.1327C193.243 30.7867 195.355 32.1452 196.947 34.1741L194.499 36.8106C193.177 35.2695 191.557 34.2339 189.655 33.7785C188.67 33.5612 187.776 33.6494 186.994 34.0836C186.182 34.5112 185.632 35.3178 185.351 36.4694C185.195 37.1847 185.301 37.8505 185.653 38.5349C186.004 39.2192 186.699 39.7651 187.691 40.234C188.236 40.4612 189.012 40.7752 189.997 41.1353C191.929 41.883 193.214 43.0231 193.88 44.5622C194.524 46.0606 194.676 47.6647 194.299 49.4019C193.205 54.0146 190.189 55.8119 185.311 54.8068C182.178 54.1156 179.707 52.3924 177.92 49.678L180.637 47.3864Z" fill="#FD9909"/>
<path fill-rule="evenodd" clip-rule="evenodd" d="M187.046 25.5633L184.004 58.7661L185.816 59.0347L188.859 25.8319L187.046 25.5633Z" fill="#FD9909"/>
<path fill-rule="evenodd" clip-rule="evenodd" d="M190.561 25.666L187.518 58.8688L189.33 59.1375L192.373 25.9346L190.561 25.666Z" fill="#FD9909"/>
<path fill-rule="evenodd" clip-rule="evenodd" d="M84.7371 171.035L90.5074 203.905L61.428 209.714L55.7666 176.336L84.7371 171.035Z" fill="white"/>
<path fill-rule="evenodd" clip-rule="evenodd" d="M56.6826 177.023L59.7056 194.842C59.7835 195.303 59.4739 195.74 59.0129 195.819C58.5528 195.896 58.1156 195.586 58.0367 195.126L54.8748 176.481C54.7972 176.025 55.1011 175.59 55.5565 175.507L84.52 170.205C84.7422 170.164 84.9709 170.214 85.1558 170.343C85.3407 170.472 85.4668 170.669 85.5064 170.891L88.3411 187.038C88.4215 187.499 88.1135 187.938 87.654 188.019C87.1935 188.1 86.7554 187.791 86.674 187.331L83.9867 172.024L56.6826 177.023Z" fill="black"/>
<path fill-rule="evenodd" clip-rule="evenodd" d="M89.5948 203.232L86.8003 187.314C86.7199 186.853 87.0269 186.415 87.4874 186.334C87.9468 186.253 88.386 186.561 88.4674 187.021L91.4046 203.754C91.4847 204.206 91.1883 204.639 90.7373 204.73L61.6663 210.54C61.4414 210.586 61.2089 210.537 61.0206 210.408C60.8321 210.278 60.7043 210.077 60.6656 209.852L58.1646 195.109C58.0867 194.648 58.3973 194.21 58.8573 194.133C59.3183 194.054 59.7554 194.364 59.8335 194.825L62.1887 208.709L89.5948 203.232Z" fill="black"/>
<path fill-rule="evenodd" clip-rule="evenodd" d="M87.2599 201.696L86.8784 199.571L63.4868 203.788L63.8691 205.914L87.2599 201.696ZM86.4023 196.81L86.0199 194.686L62.6281 198.902L63.0115 201.027L86.4023 196.81ZM85.5438 191.925L85.161 189.798L61.7705 194.016L62.1529 196.142L85.5438 191.925ZM84.6855 187.04L84.3031 184.914L60.912 189.131L61.2944 191.257L84.6855 187.04ZM83.827 182.154L83.4446 180.028L60.0534 184.246L60.4358 186.372L83.827 182.154ZM82.9683 177.269L82.586 175.143L59.1948 179.361L59.5781 181.485L82.9683 177.269Z" fill="black"/>
<path fill-rule="evenodd" clip-rule="evenodd" d="M95.8722 174.792L101.361 202.862L76.7419 207.164L71.3372 178.665L95.8722 174.792Z" fill="white"/>
<path fill-rule="evenodd" clip-rule="evenodd" d="M104.703 202.379L102.726 192.272C102.664 191.958 102.868 191.664 103.179 191.618C103.491 191.57 103.794 191.787 103.855 192.102L105.941 202.766C106.001 203.076 105.806 203.366 105.501 203.419L80.8924 207.725C80.74 207.753 80.5813 207.715 80.4513 207.624C80.3214 207.532 80.2316 207.393 80.2026 207.239L77.9096 195.156C77.8502 194.841 78.0547 194.549 78.367 194.504C78.6786 194.459 78.9807 194.678 79.0401 194.993L81.2211 206.489L104.703 202.379Z" fill="black"/>
<path fill-rule="evenodd" clip-rule="evenodd" d="M69.2592 179.07L72.2393 194.861C72.2989 195.173 72.092 195.464 71.7791 195.508C71.4653 195.553 71.1635 195.334 71.1039 195.022L68.0181 178.671C67.9594 178.36 68.1619 178.071 68.4716 178.023L93.1048 174.192C93.2557 174.168 93.4128 174.206 93.5404 174.297C93.669 174.387 93.7569 174.523 93.7865 174.674L97.1612 192.011C97.2218 192.324 97.0174 192.616 96.7039 192.663C96.3913 192.709 96.0877 192.492 96.0271 192.179L92.7635 175.413L69.2592 179.07Z" fill="black"/>
<path fill-rule="evenodd" clip-rule="evenodd" d="M99.0219 199.299L98.6056 197.499L78.7483 203.456L79.1655 205.257L99.0219 199.299ZM98.0813 195.158L97.6641 193.359L77.8067 199.316L78.2247 201.115L98.0813 195.158ZM97.1399 191.018L96.7223 189.217L76.8661 195.174L77.2833 196.975L97.1399 191.018ZM96.1987 186.878L95.7814 185.077L75.9247 191.035L76.3419 192.835L96.1987 186.878ZM95.2572 182.738L94.84 180.937L74.9832 186.895L75.4004 188.695L95.2572 182.738ZM94.3156 178.598L93.8986 176.797L74.0417 182.755L74.4597 184.554L94.3156 178.598Z" fill="black"/>
<path d="M61.1237 291.979C73.4993 291.979 83.5317 281.678 83.5317 268.971C83.5317 256.263 73.4993 245.962 61.1237 245.962C48.7482 245.962 38.7158 256.263 38.7158 268.971C38.7158 281.678 48.7482 291.979 61.1237 291.979Z" fill="#FFCF84"/>
<path fill-rule="evenodd" clip-rule="evenodd" d="M61.124 251.024C70.77 251.024 78.602 259.066 78.602 268.971C78.602 278.876 70.77 286.917 61.124 286.917C60.7321 286.917 60.4141 287.244 60.4141 287.646C60.4141 288.049 60.7321 288.375 61.124 288.375C71.5537 288.375 80.0219 279.68 80.0219 268.971C80.0219 258.261 71.5537 249.566 61.124 249.566C60.7321 249.566 60.4141 249.893 60.4141 250.295C60.4141 250.697 60.7321 251.024 61.124 251.024Z" fill="#FD9909"/>
<path fill-rule="evenodd" clip-rule="evenodd" d="M61.1235 286.917C51.4763 286.917 43.6443 278.876 43.6443 268.971C43.6443 259.066 51.4763 251.024 61.1235 251.024C61.5153 251.024 61.8334 250.697 61.8334 250.295C61.8334 249.893 61.5153 249.566 61.1235 249.566C50.6926 249.566 42.2256 258.261 42.2256 268.971C42.2256 279.68 50.6926 288.375 61.1235 288.375C61.5153 288.375 61.8334 288.049 61.8334 287.646C61.8334 287.244 61.5153 286.917 61.1235 286.917Z" fill="#FD9909"/>
<path fill-rule="evenodd" clip-rule="evenodd" d="M63.8209 291.814L63.3623 288.023C63.314 287.624 63.5909 287.26 63.9799 287.21C64.3689 287.16 64.7225 287.444 64.7722 287.843L65.2251 291.594C64.7622 291.682 64.2937 291.756 63.8209 291.814ZM68.0108 290.87L66.7415 287.024C66.6165 286.642 66.8153 286.228 67.1873 286.099C67.5579 285.97 67.9611 286.175 68.0861 286.556L69.3483 290.377C68.9096 290.556 68.4637 290.72 68.0108 290.87ZM48.7707 288.166L50.7442 284.833C50.9473 284.49 51.3846 284.38 51.7197 284.589C52.0547 284.798 52.1612 285.247 51.9582 285.591L49.9789 288.932C49.5672 288.689 49.164 288.434 48.7707 288.166ZM79.5597 282.044L76.2984 279.566C75.9846 279.326 75.9179 278.87 76.1507 278.546C76.3836 278.223 76.828 278.155 77.1432 278.394L80.3321 280.817C80.0879 281.235 79.8295 281.644 79.5597 282.044ZM39.8271 276.142L43.6593 274.371C44.0157 274.206 44.4373 274.37 44.5978 274.737C44.7582 275.104 44.5992 275.536 44.2414 275.701L40.3142 277.516C40.1381 277.065 39.9748 276.607 39.8271 276.142ZM82.8665 263.39C82.9801 263.86 83.0809 264.335 83.1661 264.815L79.3879 265.73C79.0074 265.823 78.6241 265.58 78.5346 265.188C78.4437 264.797 78.6808 264.404 79.0614 264.311L82.8665 263.39ZM42.6072 256.014L45.9835 258.282C46.3115 258.502 46.4038 258.954 46.1894 259.291C45.975 259.628 45.5349 259.722 45.2069 259.502L41.8447 257.244C42.0861 256.825 42.3417 256.415 42.6072 256.014ZM44.8108 253.202L47.5567 255.275C47.8719 255.514 47.9401 255.97 47.7072 256.294C47.4758 256.618 47.03 256.688 46.7148 256.449L43.868 254.299C44.1704 253.923 44.4856 253.557 44.8108 253.202ZM74.0749 250.198C74.4611 250.479 74.8388 250.773 75.2065 251.079L72.7516 254.257C72.5074 254.572 72.0602 254.625 71.7535 254.375C71.4468 254.125 71.3957 253.666 71.6385 253.351L74.0749 250.198ZM70.2726 247.964C70.7057 248.164 71.1316 248.377 71.549 248.603L69.8183 251.937C69.6337 252.292 69.2035 252.426 68.857 252.237C68.512 252.047 68.3814 251.606 68.566 251.251L70.2726 247.964ZM56.0984 246.544L57.098 250.203C57.2031 250.591 56.983 250.993 56.6053 251.102C56.2276 251.211 55.8358 250.985 55.7307 250.597L54.7255 246.915C55.177 246.777 55.6341 246.653 56.0984 246.544Z" fill="#FD9909"/>
<path d="M144.474 281.93C150.588 290.603 162.877 292.462 171.922 286.082C180.968 279.702 183.343 267.499 177.229 258.826C171.115 250.153 158.826 248.294 149.781 254.674C140.736 261.054 138.36 273.257 144.474 281.93Z" fill="#FFCF84"/>
<path fill-rule="evenodd" clip-rule="evenodd" d="M171.385 265.942C177.253 271.689 175.842 279.835 168.237 284.121C160.631 288.408 149.692 287.222 143.824 281.476C143.586 281.242 143.141 281.194 142.833 281.368C142.524 281.542 142.466 281.873 142.705 282.107C149.049 288.32 160.877 289.602 169.101 284.967C177.324 280.332 178.849 271.525 172.504 265.312C172.266 265.078 171.821 265.03 171.513 265.204C171.204 265.378 171.146 265.709 171.385 265.942Z" fill="#FD9909"/>
<path fill-rule="evenodd" clip-rule="evenodd" d="M150.318 274.813C144.449 269.066 145.86 260.92 153.465 256.634C161.071 252.347 172.01 253.533 177.879 259.28C178.117 259.513 178.561 259.562 178.87 259.387C179.179 259.213 179.237 258.882 178.998 258.649C172.653 252.435 160.826 251.154 152.602 255.789C144.379 260.423 142.853 269.23 149.199 275.444C149.437 275.677 149.881 275.726 150.19 275.551C150.499 275.377 150.557 275.047 150.318 274.813Z" fill="#FD9909"/>
<path fill-rule="evenodd" clip-rule="evenodd" d="M145.164 282.239L147.741 280.268C148.012 280.06 148.411 280.119 148.632 280.4C148.852 280.681 148.81 281.076 148.539 281.284L145.989 283.234C145.705 282.913 145.43 282.581 145.164 282.239ZM147.837 285.086L150.073 282.462C150.294 282.203 150.693 282.18 150.964 282.414C151.234 282.646 151.274 283.046 151.052 283.305L148.831 285.913C148.493 285.649 148.161 285.373 147.837 285.086ZM140.749 269.013L144.136 269.123C144.485 269.134 144.772 269.426 144.776 269.775C144.78 270.124 144.5 270.398 144.151 270.387L140.754 270.276C140.739 269.854 140.737 269.432 140.749 269.013ZM159.792 290.28L160.079 286.695C160.108 286.349 160.413 286.103 160.761 286.145C161.109 286.188 161.369 286.504 161.342 286.85L161.061 290.356C160.638 290.345 160.214 290.319 159.792 290.28ZM145.388 256.952L148.502 259.169C148.792 259.375 148.87 259.772 148.675 260.052C148.481 260.333 148.087 260.394 147.797 260.187L144.605 257.915C144.855 257.586 145.115 257.265 145.388 256.952ZM175.1 284.893C174.808 285.181 174.505 285.462 174.191 285.733L171.734 283.193C171.486 282.937 171.484 282.536 171.73 282.3C171.976 282.063 172.377 282.079 172.625 282.335L175.1 284.893ZM161.533 250.528L161.456 254.113C161.448 254.461 161.159 254.725 160.809 254.703C160.46 254.68 160.183 254.379 160.19 254.031L160.268 250.461C160.69 250.469 161.113 250.493 161.533 250.528ZM164.646 251.038L164.414 254.051C164.387 254.397 164.083 254.645 163.734 254.602C163.386 254.561 163.125 254.245 163.151 253.899L163.393 250.774C163.813 250.849 164.231 250.937 164.646 251.038ZM180.673 272.452C180.647 272.871 180.609 273.289 180.557 273.705L177.056 273.156C176.709 273.101 176.459 272.777 176.498 272.432C176.538 272.088 176.852 271.852 177.199 271.906L180.673 272.452ZM180.524 268.551C180.581 268.972 180.625 269.393 180.655 269.813L177.382 269.892C177.033 269.9 176.731 269.624 176.707 269.274C176.684 268.926 176.948 268.636 177.296 268.628L180.524 268.551ZM174.88 256.954L172.655 259.289C172.419 259.535 172.019 259.536 171.76 259.29C171.502 259.043 171.484 258.643 171.72 258.396L173.958 256.047C174.273 256.338 174.581 256.64 174.88 256.954Z" fill="#FD9909"/>
<path fill-rule="evenodd" clip-rule="evenodd" d="M109.976 102.222C109.916 102.13 107.61 102.214 107.431 102.203C104.73 102.035 102.033 101.771 99.3453 101.462C90.4117 100.437 79.7522 99.7318 72.3806 94.0354C63.9948 87.5556 71.0601 78.0372 80.2447 79.798C91.5685 81.969 100.146 93.1877 109.874 98.7814" fill="black"/>
<path d="M119.204 113.201C125.283 113.201 130.212 108.272 130.212 102.193C130.212 96.1136 125.283 91.1854 119.204 91.1854C113.125 91.1854 108.196 96.1136 108.196 102.193C108.196 108.272 113.125 113.201 119.204 113.201Z" fill="#ABD1CE"/>
<path fill-rule="evenodd" clip-rule="evenodd" d="M114.406 106.423L110.809 109.309C109.18 107.39 108.196 104.906 108.196 102.193C108.196 96.1176 113.129 91.1852 119.204 91.1852C124.83 91.1852 129.475 95.4146 130.133 100.865C128.292 100.649 126.763 99.5126 125.53 97.4974C125.426 101.604 121.812 103.172 117.454 103.977C117.272 102.932 116.339 102.135 115.218 102.135C113.966 102.135 112.95 103.128 112.95 104.352C112.95 105.296 113.555 106.103 114.406 106.423Z" fill="black"/>
<path fill-rule="evenodd" clip-rule="evenodd" d="M186.904 163.728C186.904 163.728 233.994 114.039 262.806 116.03C267.422 116.348 280.575 118.138 293.282 127.407C302.45 134.094 310.287 141.797 317.891 149.653C321.611 153.499 323.27 158.891 322.352 164.162C321.435 169.434 318.052 173.949 313.249 176.311C306.333 179.72 297.432 182.975 286.508 184.807C286.508 184.807 288.452 188.32 289.659 190.501C290.289 191.642 290.281 193.027 289.637 194.159C288.642 195.855 286.772 198.438 283.53 201.002C283.53 201.002 283.346 202.209 283.169 203.358C283.086 203.898 282.792 204.383 282.349 204.705C281.907 205.029 281.356 205.161 280.815 205.074C279.99 204.944 279.361 204.266 279.29 203.434C279.25 202.929 279.273 202.395 279.361 201.968C279.361 201.968 281.456 187.542 270.066 175.603C270.066 175.603 266.932 170.69 271.725 167.536L289.638 156.751L278.446 147.338C278.446 147.338 276.048 159.124 262.412 161.706C256.54 162.82 245.46 163.167 238.62 152.748C238.62 152.748 203.043 181.019 193.689 192.198C193.689 192.198 192.266 193.56 191.025 192.677C190.331 192.183 189.412 191.156 190.432 189.6C190.432 189.6 188.758 191.112 187.283 190.103C186.3 189.43 185.543 188.112 186.555 186.563C186.555 186.563 184.843 188.129 183.297 187.022C182.257 186.275 182.016 184.958 182.528 183.456C182.528 183.456 180.718 185.253 179.177 184.211C178.1 183.482 177.579 181.967 178.315 180.865L185.151 171.051L186.904 163.728Z" fill="#E9673C"/>
<path fill-rule="evenodd" clip-rule="evenodd" d="M283.023 203.864C283.018 203.807 283.023 203.749 283.034 203.69C284.725 195.084 283.203 185.982 283.203 185.982C283.142 185.612 283.391 185.263 283.761 185.2C284.128 185.139 284.479 185.388 284.54 185.758C284.54 185.758 284.935 188.127 285.106 191.61L287.425 192.257C287.784 192.359 287.996 192.732 287.894 193.093C287.794 193.454 287.42 193.664 287.059 193.562L285.162 193.032C285.216 195.074 285.183 197.397 284.957 199.799C284.513 200.199 284.039 200.6 283.53 201.002C283.53 201.002 283.345 202.209 283.169 203.358C283.142 203.534 283.093 203.703 283.023 203.864Z" fill="#D9512E"/>
<path fill-rule="evenodd" clip-rule="evenodd" d="M206.353 145.479C222.642 131.528 245.879 114.86 262.806 116.03C267.422 116.348 280.575 118.138 293.282 127.407C302.45 134.094 310.287 141.797 317.891 149.653C321.611 153.499 323.27 158.891 322.352 164.162C321.435 169.434 318.052 173.949 313.249 176.311C309.838 177.993 305.945 179.637 301.562 181.091L285.54 159.218L289.638 156.751L278.446 147.338C278.446 147.338 276.048 159.124 262.412 161.706C256.54 162.82 245.46 163.167 238.62 152.748C238.62 152.748 231.638 158.295 223.046 165.45L206.353 145.479Z" fill="#D84B26"/>
<path fill-rule="evenodd" clip-rule="evenodd" d="M188.207 190.442L190.186 187.683C190.403 187.378 190.829 187.309 191.132 187.527C191.435 187.746 191.505 188.17 191.288 188.473C191.288 188.473 190.354 189.717 190.432 189.6C190.432 189.6 189.378 190.552 188.207 190.442ZM184.278 187.405L186.319 184.563C186.536 184.26 186.961 184.19 187.265 184.407C187.568 184.626 187.637 185.05 187.42 185.355L186.549 186.568C186.47 186.639 185.441 187.534 184.278 187.405ZM180.084 184.531L182.333 181.396C182.552 181.092 182.975 181.021 183.279 181.24C183.584 181.458 183.653 181.882 183.434 182.185L182.514 183.47C182.379 183.599 181.269 184.621 180.084 184.531Z" fill="#D9512E"/>
<path d="M260.582 113.053C266.178 113.053 270.714 108.516 270.714 102.92C270.714 97.3242 266.178 92.7877 260.582 92.7877C254.986 92.7877 250.449 97.3242 250.449 102.92C250.449 108.516 254.986 113.053 260.582 113.053Z" fill="#E9673C"/>
<path fill-rule="evenodd" clip-rule="evenodd" d="M255.552 94.1245C257.033 93.2741 258.751 92.7877 260.582 92.7877C266.174 92.7877 270.714 97.3279 270.714 102.92C270.714 106.673 268.669 109.952 265.634 111.703L262.405 106.073C263.068 106.277 263.834 106.208 264.512 105.823C265.757 105.114 266.232 103.597 265.573 102.439C264.913 101.28 263.366 100.915 262.121 101.624C261.439 102.012 260.987 102.642 260.827 103.323L255.552 94.1245Z" fill="black"/>
<path fill-rule="evenodd" clip-rule="evenodd" d="M289.439 156.583L289.476 156.561C289.476 156.561 293.009 159.566 295.087 161.332C295.209 161.435 295.238 161.61 295.157 161.747C295.075 161.884 294.906 161.944 294.758 161.884L286.459 158.664L289.639 156.751L289.439 156.583ZM237.636 153.534L245.625 146.744C245.833 146.566 246.138 146.555 246.36 146.718C246.581 146.881 246.662 147.175 246.553 147.428L242.411 157.161C241.056 155.965 239.778 154.511 238.62 152.748C238.62 152.748 238.271 153.024 237.636 153.534ZM278.467 147.354C279.111 144.718 279.777 140.413 279.524 135.077C279.513 134.848 279.665 134.642 279.887 134.585C280.109 134.527 280.341 134.634 280.443 134.84C281.887 137.802 284.151 143.876 283.099 151.252L278.467 147.354Z" fill="#76200A"/>
<path fill-rule="evenodd" clip-rule="evenodd" d="M205.634 291.78C205.634 291.78 208.079 286.524 213.082 285.597C216.111 253.033 222.01 221.267 232.063 188.659C236.042 175.774 249.027 167.902 262.292 170.332C266.12 171.032 269.73 172.566 272.565 175.393C273.823 176.648 282.856 187.723 279.446 205.025C278.365 210.506 276.158 216.954 274.625 221.228C274.625 221.228 301.35 253.187 304.901 257.434C305.133 257.711 305.164 258.105 304.979 258.417C302.427 262.693 284.967 291.951 284.967 291.951C284.967 291.951 281.902 288.995 283.047 282.882L260.719 258.395C260.719 258.395 249.375 285.782 247.329 290.717C247.139 291.176 246.694 291.476 246.197 291.48C240.386 291.524 205.634 291.78 205.634 291.78Z" fill="url(#paint0_linear_203_537)"/>
<path fill-rule="evenodd" clip-rule="evenodd" d="M213.352 282.774L250.135 283.947L249.58 285.286L213.222 284.127C213.264 283.676 213.308 283.223 213.352 282.774ZM299.768 251.296L282.406 282.18L281.445 281.125L298.838 250.183L299.768 251.296ZM274.996 220.188C274.869 220.546 274.745 220.893 274.625 221.229L275.859 222.703L261.915 259.704L260.72 258.394L259.356 261.689L274.996 220.188ZM267.889 172.107C268.399 172.353 268.899 172.622 269.385 172.915C269.568 173.708 269.956 174.605 270.693 175.529C271.869 177 280.804 184.141 279.265 201.724C279.174 202.771 279.306 203.595 279.596 204.222C279.548 204.486 279.499 204.756 279.445 205.025C279.381 205.357 279.311 205.693 279.236 206.032C279.138 205.934 279.042 205.832 278.95 205.72C278.218 204.842 277.747 203.515 277.915 201.605C279.397 184.665 270.768 177.793 269.636 176.376C268.389 174.817 267.965 173.314 267.889 172.107Z" fill="#D9512E"/>
<path fill-rule="evenodd" clip-rule="evenodd" d="M139.045 217.909C131.339 249.853 111.385 286.081 111.385 286.081C115.09 285.72 119.204 291.994 119.204 291.994C119.204 291.994 81.7927 291.994 71.0034 291.994C70.3662 291.994 69.7717 291.673 69.4211 291.141C69.0704 290.609 69.0108 289.936 69.2621 289.352C82.6581 257.796 92.7541 217.807 94.0492 211.711C102.951 169.816 118.372 169.416 125.029 170.719C126.921 171.088 128.63 171.631 130.163 172.329C146.105 175.762 170.678 186.859 184.141 196.953C188.366 200.144 190.383 205.479 189.322 210.667C187.019 222.005 182.258 232.458 176.713 244.004C182.192 246.872 183.585 250.417 183.585 250.417C183.585 250.417 155.285 248.212 148.564 247.69C148.208 247.661 147.881 247.48 147.669 247.192C147.457 246.905 147.381 246.539 147.461 246.19C148.635 241.016 152.692 223.15 152.692 223.15C147.82 221.845 143.207 220.188 139.045 217.909Z" fill="url(#paint1_linear_203_537)"/>
<path fill-rule="evenodd" clip-rule="evenodd" d="M74.8995 275.128L115.852 277.494C115.564 278.07 115.286 278.619 115.019 279.144L74.2773 276.79C74.4855 276.238 74.6926 275.684 74.8995 275.128ZM178.969 239.262L149.066 239.12L149.451 237.427L179.757 237.571C179.498 238.132 179.235 238.696 178.969 239.262ZM124.06 170.554C124.4 170.602 124.724 170.658 125.03 170.719C126.921 171.088 128.631 171.631 130.163 172.329C130.817 172.47 131.485 172.624 132.166 172.79C133.771 174.046 135.445 175.695 136.986 177.854C141.933 184.79 145.539 197.085 140.506 218.673C140.013 218.425 139.526 218.171 139.045 217.909C138.704 219.32 138.34 220.74 137.955 222.162C137.938 222.051 137.943 221.934 137.974 221.818C144.083 198.76 140.653 185.914 135.606 178.838C130.695 171.951 124.316 170.649 124.316 170.649C124.223 170.631 124.138 170.599 124.06 170.554Z" fill="#8ABBB8"/>
<path fill-rule="evenodd" clip-rule="evenodd" d="M150.814 222.625V222.617C150.814 222.617 156.199 224.191 161.551 224.869C161.835 224.896 162.061 225.126 162.081 225.413C162.103 225.699 161.917 225.96 161.637 226.03C158.283 226.884 153.404 228.124 151.45 228.621L152.692 223.15C152.062 222.981 151.436 222.806 150.814 222.625Z" fill="#8ABBB8"/>
<path fill-rule="evenodd" clip-rule="evenodd" d="M96.7004 178.538C96.7004 178.538 97.3034 180.075 98.3279 181.045C98.9075 181.594 100.051 181.84 101.073 181.155C103.01 179.859 104.445 176.613 104.121 173.103C104.037 172.195 101.545 164.823 95.0997 160.798L101.073 157.373C101.073 157.373 114.642 172.812 133.744 159.537C133.744 159.537 151.262 173.107 177.349 182.714L185.515 171.097C185.515 171.097 195.593 169.182 197.442 166.27C197.722 165.831 198.047 164.665 195.91 164.498C194.944 164.421 187.528 163.426 174.406 156.28C170.806 154.317 158.948 148.298 143.14 132.601C139.814 129.298 118.702 108.041 86.1592 132.601C80.4485 136.911 57.9389 154.358 47.5672 170.822C43.2659 177.669 44.0672 186.544 49.5249 192.51C49.5242 192.51 49.5242 192.51 49.5242 192.51C54.5171 197.967 62.6689 199.139 68.9965 195.309C80.4083 188.402 96.7004 178.538 96.7004 178.538Z" fill="#ABD1CE"/>
<path fill-rule="evenodd" clip-rule="evenodd" d="M96.5264 178.643L99.1354 176.901C99.5318 176.654 100.055 176.774 100.303 177.171C100.552 177.567 100.431 178.089 100.035 178.338L97.4464 179.959C96.9667 179.218 96.7001 178.538 96.7001 178.538L96.5264 178.643ZM185.448 171.188L185.392 171.27C185.324 171.282 185.289 171.29 185.289 171.29L184.013 173.105C182.574 173.303 181.376 173.459 181.376 173.459C180.911 173.519 180.486 173.19 180.427 172.725C180.367 172.263 180.696 171.837 181.159 171.778C181.159 171.778 183.423 171.487 185.448 171.188Z" fill="#8ABBB8"/>
<path fill-rule="evenodd" clip-rule="evenodd" d="M90.7832 182.092L68.9958 195.299C62.6694 199.134 54.5147 197.965 49.5208 192.506C49.5208 192.506 49.5207 192.506 49.5215 192.506C44.0658 186.543 43.2646 177.671 47.5636 170.827C57.934 154.363 80.4474 136.911 86.1588 132.601C118.701 108.041 139.814 129.298 143.139 132.601C158.948 148.298 170.806 154.317 174.405 156.28C176.253 157.285 177.984 158.169 179.603 158.946L166.776 178.43C146.637 169.526 133.744 159.537 133.744 159.537C114.642 172.812 101.073 157.373 101.073 157.373L95.085 160.832C87.8961 155.604 78.7281 161.798 78.7281 161.798L90.7832 182.092Z" fill="#86B8B5"/>
<path fill-rule="evenodd" clip-rule="evenodd" d="M78.8729 161.705C78.7778 161.766 78.7282 161.798 78.7282 161.798L79.5886 163.247C72.3123 167.372 65.0164 171.81 57.6688 176.366C57.2714 176.611 56.7485 176.489 56.5021 176.091C56.2557 175.695 56.3784 175.171 56.7758 174.925C64.183 170.332 71.5378 165.86 78.8729 161.705ZM133.354 159.805C134.689 158.525 139.367 153.451 140.872 143.929C140.904 143.724 141.077 143.57 141.284 143.563C141.492 143.555 141.675 143.695 141.722 143.897C142.144 146.336 142.502 150.514 141.416 155.609C140.914 157.954 140.107 160.496 138.86 163.15C135.549 160.935 133.744 159.537 133.744 159.537C133.615 159.627 133.484 159.717 133.354 159.805ZM96.5071 160.01C94.982 156.444 95.1503 153.223 95.5019 151.287C95.5575 150.989 95.7956 150.757 96.0964 150.709C96.3974 150.66 96.6957 150.808 96.8413 151.075C98.5318 154.266 100.152 156.339 101.059 157.381L96.5071 160.01Z" fill="#1F5753"/>
<path fill-rule="evenodd" clip-rule="evenodd" d="M202.311 176.054C201.597 175.195 201.509 173.935 202.175 172.973C202.975 171.814 204.567 171.522 205.726 172.324L209.651 175.035C210.808 175.835 211.1 177.427 210.298 178.586C209.569 179.642 208.183 179.976 207.066 179.421C207.687 180.26 207.737 181.433 207.112 182.338C206.397 183.375 205.039 183.706 203.943 183.165C204.555 183.989 204.607 185.144 203.99 186.036C203.289 187.053 201.958 187.378 200.88 186.851C201.486 187.663 201.536 188.802 200.931 189.678C200.17 190.779 198.659 191.056 197.557 190.295L194.413 188.122C193.314 187.361 193.036 185.849 193.797 184.75C194.449 183.807 195.651 183.468 196.674 183.868C195.983 183.04 195.898 181.819 196.54 180.889C197.203 179.93 198.427 179.586 199.467 179.994C198.765 179.15 198.679 177.91 199.333 176.964C200.008 175.988 201.252 175.639 202.311 176.054Z" fill="#ABD1CE"/>
<path fill-rule="evenodd" clip-rule="evenodd" d="M196.142 181.852L203.055 186.846C202.384 187.176 201.579 187.193 200.881 186.851C200.926 186.912 196.637 183.855 196.674 183.868C196.205 183.306 196.015 182.562 196.142 181.852ZM198.915 178.025C198.928 178.033 198.94 178.042 198.952 178.05L206.014 183.151C206.036 183.167 206.056 183.184 206.075 183.202C205.409 183.501 204.624 183.501 203.943 183.165C204.014 183.262 199.382 179.96 199.467 179.994C199.01 179.443 198.813 178.723 198.915 178.025ZM201.757 174.01C201.787 174.025 201.816 174.044 201.845 174.064L208.907 179.165C209.027 179.252 209.11 179.37 209.152 179.501C208.492 179.767 207.731 179.752 207.066 179.421C207.107 179.477 202.291 176.045 202.311 176.054C201.836 175.481 201.638 174.732 201.757 174.01Z" fill="#8ABBB8"/>
<path fill-rule="evenodd" clip-rule="evenodd" d="M278.84 259.555C278.84 258.477 277.967 257.604 276.891 257.604C268.665 257.604 236.839 257.604 228.615 257.604C227.539 257.604 226.666 258.477 226.666 259.555C226.666 266.993 226.666 293.178 226.666 293.178H278.84V259.555Z" fill="black"/>
<path fill-rule="evenodd" clip-rule="evenodd" d="M243.054 257.604V252.91C243.054 252.025 243.772 251.308 244.657 251.308H260.848C261.733 251.308 262.45 252.025 262.45 252.91V257.604H259.247V254.511H246.258V257.604H243.054Z" fill="black"/>
<path fill-rule="evenodd" clip-rule="evenodd" d="M278.36 258.275C278.659 258.618 278.84 259.065 278.84 259.555V260.007L254.912 276.716C253.616 277.621 251.89 277.622 250.592 276.719L226.666 260.063V259.555C226.666 259.082 226.834 258.648 227.113 258.311L251.562 275.328C252.277 275.826 253.227 275.824 253.941 275.326L278.36 258.275Z" fill="white"/>
<defs>
<linearGradient id="paint0_linear_203_537" x1="255.461" y1="230.892" x2="194.071" y2="87.6333" gradientUnits="userSpaceOnUse">
<stop stop-color="#E9673C"/>
<stop offset="1" stop-color="#FFBDB4"/>
</linearGradient>
<linearGradient id="paint1_linear_203_537" x1="139.256" y1="258.577" x2="230.461" y2="188.207" gradientUnits="userSpaceOnUse">
<stop stop-color="#ABD1CE"/>
<stop offset="0.52" stop-color="#BFDCD9"/>
<stop offset="1" stop-color="white"/>
</linearGradient>
</defs>
</svg>
